<svg width="100" height="100" viewBox="0 0 100 100" fill="none" xmlns="http://www.w3.org/2000/svg">
<circle cx="50" cy="50" r="50" fill="#34478C"/>
<path d="M55.8571 26.7538C55.5579 27.0161 55.2794 27.3011 55.024 27.6063C54.2984 26.461 53.4471 25.4004 52.4859 24.4443C52.1534 24.1106 51.7583 23.8457 51.3233 23.6651C50.8882 23.4844 50.4217 23.3914 49.9507 23.3914C49.4796 23.3914 49.0131 23.4844 48.5781 23.6651C48.143 23.8457 47.7479 24.1106 47.4154 24.4443C46.4717 25.3812 45.6336 26.4188 44.9161 27.5385C44.0463 26.5267 42.9303 25.7563 41.676 25.3015C40.4216 24.8467 39.0712 24.723 37.7551 24.9422C36.6394 25.1268 35.5775 25.5526 34.6434 26.19C31.0106 28.6472 28.0373 31.9597 25.9852 35.8358C23.9331 39.712 22.8651 44.0331 22.8751 48.4189C22.8866 55.3321 25.5373 61.98 30.2856 67.0045C35.0339 72.029 41.5215 75.0509 48.4229 75.4529C48.902 75.6804 49.4255 75.799 49.9558 75.8C50.4862 75.801 51.0101 75.6844 51.49 75.4587C58.4237 75.0772 64.947 72.0511 69.7162 67.0037C74.4853 61.9563 77.137 55.272 77.1251 48.3279C77.122 43.9444 76.0412 39.6289 73.9778 35.7614C71.9145 31.8938 68.9319 28.5929 65.2928 26.1493C63.8743 25.1929 62.1788 24.7336 60.4715 24.8433C58.7643 24.9531 57.1415 25.6237 55.8571 26.7538ZM67.455 66.209C67.3318 66.5099 67.122 66.7674 66.8523 66.9488C66.5825 67.1302 66.265 67.2275 65.9399 67.2282C65.4632 67.2283 64.9868 67.2076 64.5119 67.1662C64.4212 67.1581 64.3307 67.1471 64.2407 67.1332C64.1743 67.123 64.1078 67.114 64.0411 67.1061L63.8474 67.0829C63.6031 67.0573 63.3595 67.025 63.1169 66.986C63.0052 66.9659 62.8941 66.9426 62.7837 66.9162L62.5861 66.8717C62.3082 66.821 62.0322 66.7602 61.7588 66.6895C61.6354 66.6572 61.5132 66.6204 61.3926 66.5791C61.3314 66.5591 61.2701 66.5397 61.2085 66.521L61.0438 66.4687C60.844 66.4119 60.6456 66.3498 60.449 66.2827C60.325 66.2381 60.2088 66.1897 60.0925 66.1412L59.8929 66.0599L59.7379 65.9998C59.5519 65.9262 59.3659 65.8545 59.1858 65.7731C59.0582 65.7165 58.9328 65.6551 58.8099 65.589L58.6394 65.5019L58.4553 65.4108C58.1686 65.2774 57.8909 65.1253 57.6241 64.9555L57.4401 64.8392L57.318 64.7675C57.163 64.6745 56.9886 64.5699 56.8317 64.4672C56.7151 64.3884 56.6008 64.3063 56.4888 64.2212L56.3163 64.0952C53.628 62.1559 51.589 59.4489 50.467 56.3297C51.5333 56.2488 52.5651 55.9161 53.4779 55.359C56.1305 56.7674 59.0887 57.5019 62.092 57.498C63.1576 57.498 64.2233 57.405 65.2734 57.2229L65.2986 57.2636L65.3644 57.3721C65.6764 57.9107 65.9593 58.4668 66.2092 59.0364C66.2441 59.1178 66.2731 59.1953 66.3061 59.2786L66.3274 59.3367C66.5502 59.8695 66.7439 60.414 66.9086 60.9681L66.9474 61.0882L66.9997 61.2626C67.1936 61.9848 67.3373 62.7196 67.4298 63.4617L67.4414 63.5644C67.5267 64.227 67.5732 64.8954 67.5771 65.5639V65.5794C67.5775 65.7939 67.536 66.0065 67.455 66.2052M49.4401 56.3297C48.2937 59.5188 46.1898 62.2756 43.4164 64.2231C43.3041 64.3064 43.1898 64.3917 43.0716 64.4692C42.8762 64.5976 42.6772 64.7203 42.4748 64.8373L42.3276 64.9264C42.1952 65.0103 42.0608 65.0911 41.9246 65.1686C41.7889 65.2442 41.6262 65.3236 41.4673 65.4011L41.384 65.4418C41.2853 65.4905 41.1872 65.5402 41.0895 65.591C40.9667 65.6546 40.8426 65.716 40.7175 65.775C40.4928 65.8758 40.2622 65.9688 40.0316 66.0521L39.8573 66.1219C39.7228 66.1784 39.5872 66.232 39.4504 66.2827C39.2702 66.3466 39.0861 66.3989 38.904 66.4551L38.7199 66.5094L38.4971 66.5791C38.377 66.6179 38.2588 66.6566 38.1387 66.6876C37.8822 66.7523 37.6237 66.8092 37.3637 66.8581L37.1506 66.9046C37.0285 66.9317 36.9064 66.9589 36.7824 66.9821C36.5422 67.0228 36.2981 67.0519 36.0501 67.079L35.8621 67.1022C35.7961 67.1096 35.7302 67.118 35.6645 67.1274C35.5732 67.1417 35.4814 67.1533 35.3894 67.1623C34.9145 67.2035 34.4381 67.2242 33.9614 67.2243C33.5248 67.2233 33.1063 67.0495 32.7974 66.7409C32.4884 66.4324 32.3142 66.0141 32.3126 65.5774C32.3127 65.0534 32.3379 64.5297 32.3882 64.008C32.3979 63.8976 32.4134 63.7891 32.4289 63.6787L32.4521 63.5159C32.5041 63.0336 32.585 62.5548 32.6943 62.0822L32.7292 61.9252C32.9203 61.0881 33.1769 60.2674 33.4964 59.4704L33.5294 59.3813C33.5739 59.267 33.6185 59.1507 33.6669 59.0403C33.8401 58.6423 34.0288 58.2513 34.2327 57.8681C34.4876 57.3826 34.7682 56.9111 35.0736 56.4557C35.1201 56.3859 35.1704 56.3181 35.2208 56.2503L35.3274 56.103C37.2732 53.3386 40.0262 51.2434 43.2091 50.1045C43.3331 51.7153 44.0296 53.2285 45.1725 54.3704C46.3154 55.5122 47.8292 56.2072 49.4401 56.3297ZM44.8173 45.1833C44.1256 45.9916 43.6337 46.9514 43.3816 47.9849C40.4943 48.8598 37.8693 50.4375 35.742 52.5768C35.0024 53.3325 34.3277 54.1492 33.7251 55.018C30.871 54.3031 28.2635 52.8296 26.1785 50.7536V50.7478C25.8719 50.441 25.699 50.0255 25.6975 49.5917C25.6961 49.158 25.8662 48.7413 26.1708 48.4325C28.7161 45.8813 32.0334 44.2431 35.6064 43.7728C36.3311 43.6692 37.0618 43.6135 37.7938 43.6062C40.2351 43.6062 42.6337 44.1525 44.8173 45.1852M55.0879 53.9892C55.8175 53.1386 56.3241 52.1199 56.5624 51.0249C60.3839 49.8096 63.7017 47.3751 66.0077 44.0944C68.9316 44.8011 71.6035 46.3016 73.7286 48.4305C73.9675 48.6699 74.1269 48.9771 74.1851 49.3102C74.2433 49.6433 74.1976 49.9863 74.0541 50.2925C73.9735 50.463 73.864 50.6184 73.7306 50.7517C71.335 53.1457 68.2585 54.7415 64.9217 55.321C61.5848 55.9005 58.1505 55.4354 55.0879 53.9892ZM56.6883 48.9537C56.5368 47.3383 55.8096 45.8312 54.6395 44.7073C53.4693 43.5833 51.9341 42.9175 50.3139 42.8312C51.4669 39.5899 53.6076 36.7919 56.4345 34.8312C56.5521 34.7446 56.6716 34.6606 56.7929 34.5794C56.9421 34.4844 57.132 34.3701 57.3122 34.2635L57.3994 34.2112L57.566 34.1105C57.6859 34.0351 57.808 33.9634 57.9322 33.8954C58.1439 33.7798 58.3598 33.6719 58.5793 33.5719L58.7363 33.4905C58.8661 33.4227 58.9959 33.3549 59.1296 33.3025C59.3563 33.1999 59.5888 33.1088 59.8213 33.0235C59.911 32.9895 60.0001 32.954 60.0886 32.917C60.1855 32.8782 60.2785 32.8395 60.3773 32.8046C60.576 32.7383 60.7762 32.6769 60.9779 32.6205L61.1291 32.576L61.3228 32.5159C61.4391 32.4772 61.5553 32.4404 61.6754 32.4113C61.896 32.3553 62.1183 32.3062 62.3419 32.264L62.4795 32.2369L62.65 32.1982C62.7721 32.171 62.8922 32.1439 63.0162 32.1207C63.2564 32.0819 63.4986 32.0529 63.7408 32.0257L63.9191 32.0064C63.9799 31.9987 64.0406 31.9903 64.1012 31.9812C64.1981 31.9676 64.2949 31.9521 64.3957 31.9424C64.8607 31.9037 65.3315 31.8843 65.8062 31.8843C66.2413 31.8853 66.6583 32.0585 66.9662 32.366C67.274 32.6734 67.4477 33.0903 67.4492 33.5254C67.4493 34.0507 67.4241 34.5757 67.3736 35.0986C67.3639 35.2071 67.3484 35.3156 67.3329 35.4241C67.2871 35.8273 67.2263 36.2286 67.1508 36.6273C67.1276 36.7629 67.0985 36.8889 67.0694 37.0187L67.0307 37.1892C66.9166 37.6899 66.7795 38.1851 66.6199 38.6733C66.519 38.9798 66.4079 39.2829 66.2867 39.582L66.1976 39.8145C66.1634 39.9039 66.1286 39.993 66.0929 40.0819C65.945 40.4158 65.7861 40.7447 65.6163 41.068L65.5466 41.2075C65.5132 41.279 65.4777 41.3494 65.44 41.4187C65.204 41.8499 64.9487 42.2701 64.6747 42.6781C64.625 42.751 64.5727 42.8221 64.5178 42.8912L64.4809 42.9377C62.5605 45.6935 59.8405 47.7934 56.6883 48.9537ZM49.4324 42.8428C48.3612 42.9257 47.3251 43.2624 46.4099 43.8251C42.7949 41.9089 38.6436 41.2543 34.6144 41.9651L34.5214 41.8101C34.1806 41.2207 33.8771 40.6105 33.6127 39.983L33.5584 39.8474C33.323 39.2755 33.1199 38.6907 32.9501 38.0959C32.7306 37.3185 32.5694 36.5258 32.4676 35.7244L32.456 35.6217C32.369 34.9548 32.323 34.2832 32.3184 33.6106C32.3174 33.3942 32.3591 33.1798 32.4413 32.9796C32.5234 32.7795 32.6443 32.5975 32.797 32.4442C32.9501 32.2912 33.132 32.1699 33.3322 32.0874C33.5324 32.005 33.7469 31.9629 33.9634 31.9637C34.3044 31.9637 34.6454 31.9734 34.9825 31.9928C35.4049 32.0219 35.8253 32.0664 36.2438 32.1284C36.3097 32.1381 36.3775 32.1439 36.4434 32.1517L36.5596 32.1652C36.7274 32.1936 36.8947 32.2246 37.0614 32.2582L37.2242 32.295L37.2881 32.3067C37.5511 32.3583 37.8127 32.4164 38.0728 32.481L38.1058 32.4888L38.2375 32.5275C38.2806 32.5431 38.3246 32.5561 38.3693 32.5663L38.4661 32.5954C38.7839 32.6845 39.0997 32.7736 39.4097 32.886L39.4775 32.9131L39.5221 32.9325C39.9096 33.072 40.2971 33.2212 40.6652 33.3878C40.7349 33.4188 40.8047 33.4556 40.8744 33.4924L41.0527 33.5815L41.1961 33.6513C41.4266 33.7598 41.6553 33.8702 41.8761 33.9923C41.9691 34.0446 42.0602 34.1008 42.1513 34.157L42.3082 34.2539L42.4884 34.3585C42.8096 34.5356 43.1172 34.7364 43.4087 34.9591C46.1809 36.9041 48.2852 39.6573 49.4343 42.8428M31.5202 59.2728C31.3806 59.6509 31.2533 60.0334 31.1385 60.4198C30.9937 60.3656 30.8497 60.3094 30.7064 60.2512C29.8842 59.9128 29.2292 59.2628 28.8843 58.4432C28.5395 57.6236 28.5328 56.7009 28.8658 55.8764C28.9393 55.6938 29.0169 55.513 29.0983 55.3339C30.2163 55.9345 31.3981 56.4208 32.6246 56.7812C32.6246 56.7947 32.6149 56.8102 32.6052 56.8257L32.5994 56.8374C32.2681 57.4461 31.9724 58.0736 31.7139 58.7167C31.665 58.842 31.6198 58.9686 31.5783 59.0965L31.5202 59.2728ZM28.798 43.5209C28.4562 42.7002 28.4527 41.7776 28.7885 40.9544C29.1242 40.1312 29.7719 39.4742 30.5902 39.1267C30.7839 39.0434 30.9816 38.9659 31.1792 38.8922C31.3497 39.4735 31.5493 40.0489 31.7798 40.6127C31.8554 40.7968 31.9426 40.9712 32.0317 41.1514L32.0782 41.2482L32.2274 41.5795C32.3514 41.8566 32.4754 42.1337 32.6226 42.4107C31.3545 42.781 30.1305 43.2884 28.9724 43.9239C28.9124 43.791 28.8543 43.6554 28.798 43.5209ZM68.3172 39.6595C68.4218 39.365 68.5361 39.0317 68.6369 38.7024C68.819 38.7702 69.0011 38.8399 69.1813 38.9135C69.5924 39.0776 69.967 39.3214 70.2834 39.631C70.5998 39.9406 70.8517 40.3098 71.0246 40.7172C71.1976 41.1247 71.2881 41.5624 71.2909 42.005C71.2938 42.4477 71.209 42.8865 71.0413 43.2962C70.9638 43.4841 70.8863 43.6682 70.803 43.8522C69.6355 43.2263 68.4039 42.728 67.1295 42.3662C67.1547 42.3197 67.1741 42.2732 67.1954 42.2267C67.2164 42.1772 67.2397 42.1287 67.2651 42.0814C67.6712 41.2993 68.0228 40.4901 68.3172 39.6595ZM71.1304 55.6555C71.3019 56.0619 71.3915 56.4981 71.3942 56.9392C71.3969 57.3803 71.3126 57.8176 71.1462 58.2261C70.9797 58.6346 70.7344 59.0063 70.4242 59.3198C70.1139 59.6334 69.7449 59.8828 69.3383 60.0536C69.1368 60.1389 68.9314 60.2183 68.7279 60.2958C68.556 59.7085 68.3542 59.1304 68.1234 58.5637C68.0441 58.3741 67.9569 58.1879 67.8619 58.0057L67.8251 57.9282L67.6759 57.5988C67.5533 57.3168 67.4215 57.039 67.2806 56.7657C68.5564 56.3944 69.7876 55.8844 70.9522 55.2447C71.0123 55.3804 71.0723 55.516 71.1304 55.6555ZM60.2688 30.2045C60.3463 30.3866 60.4199 30.5726 60.4916 30.7567C59.9391 30.9169 59.3947 31.1038 58.8603 31.3166C58.6433 31.4057 58.434 31.5065 58.2228 31.6072L57.9923 31.7196L57.6668 31.8649C57.473 31.9502 57.2754 32.0374 57.0894 32.1362C56.7157 30.8854 56.2083 29.6785 55.5762 28.5363L55.8649 28.4104C56.2776 28.236 56.7213 28.1488 57.1688 28.1488C57.8307 28.1464 58.4784 28.3402 59.0302 28.7057C59.5819 29.0713 60.013 29.5941 60.2688 30.2045ZM42.7654 32.2602C42.5058 32.1168 42.2365 31.9967 41.9672 31.8765L41.6204 31.7196L41.3491 31.5898C41.2154 31.5259 41.0837 31.46 40.9461 31.4038C40.3845 31.1801 39.8115 30.986 39.2295 30.8225C39.1873 30.8096 39.1454 30.796 39.1036 30.7819C39.1598 30.6346 39.2159 30.4874 39.276 30.342C39.5248 29.7234 39.9529 29.1932 40.5053 28.8196C41.0577 28.4461 41.7092 28.2462 42.376 28.2457L42.3857 28.2418C42.8216 28.2418 43.2518 28.3251 43.6548 28.4917C43.8408 28.5692 44.0268 28.6487 44.2108 28.732C43.6069 29.8535 43.1224 31.0374 42.7654 32.2602ZM57.1359 66.9356C57.2618 67.0073 57.3994 67.0674 57.535 67.1274C57.6085 67.1586 57.6815 67.1908 57.7539 67.2243L57.8799 67.2882C58.2519 67.4742 58.6239 67.6602 59.0133 67.8191C59.3253 67.9489 59.6527 68.0535 59.9801 68.1582C60.2472 68.2443 60.5133 68.3334 60.7784 68.4255L60.6273 68.8092C60.4637 69.2206 60.22 69.5955 59.9105 69.9121C59.601 70.2287 59.2317 70.4807 58.824 70.6536C58.4164 70.8264 57.9785 70.9166 57.5357 70.9189C57.0929 70.9213 56.6541 70.8357 56.2446 70.6672C56.0637 70.5931 55.8841 70.5156 55.706 70.4347C56.3029 69.3212 56.7821 68.1485 57.1359 66.9356ZM43.8853 70.7254C43.0641 71.0713 42.1392 71.0771 41.3138 70.7414C40.4883 70.4057 39.8299 69.756 39.4833 68.9351C39.4063 68.7511 39.3327 68.5657 39.2624 68.379L39.3923 68.3364L39.7081 68.2299L39.9851 68.1388C40.2951 68.038 40.6051 67.9373 40.9054 67.8133C41.2658 67.668 41.6126 67.4955 41.9594 67.3231L42.1668 67.2204C42.252 67.1778 42.3411 67.139 42.4283 67.1003C42.5484 67.048 42.6666 66.9937 42.7829 66.9317C43.151 68.195 43.6548 69.4079 44.2786 70.5549C44.1488 70.613 44.0171 70.6711 43.8853 70.7254ZM48.7853 25.8102C49.0937 25.5021 49.5118 25.3291 49.9478 25.3291C50.3837 25.3291 50.8018 25.5021 51.1103 25.8102C53.1569 27.8643 54.6183 30.4273 55.3437 33.2347C53.0938 34.7764 51.2177 36.8022 49.8528 39.1635C48.5103 36.8739 46.6872 34.9028 44.5092 33.3859C45.2217 30.5198 46.6997 27.9013 48.7853 25.8102ZM51.1161 73.3565C50.8074 73.6641 50.3894 73.8368 49.9536 73.8368C49.5178 73.8368 49.0998 73.6641 48.7911 73.3565C46.7148 71.2682 45.242 68.6573 44.5286 65.8002C46.7548 64.2539 48.6082 62.2305 49.9536 59.8773C51.2974 62.2342 53.1509 64.2611 55.3786 65.8099C54.6647 68.6645 53.1918 71.2709 51.1161 73.3565Z" fill="white"/>
</svg>
