<svg width="140" height="85" viewBox="0 0 140 85" fill="none" xmlns="http://www.w3.org/2000/svg">
<path fill-rule="evenodd" clip-rule="evenodd" d="M66.6112 5.12743C64.6493 7.94199 61.0534 12.6324 58.6184 15.5527L54.1931 20.8599L41.8542 15.1582C35.0696 12.0218 29.2628 9.45497 28.9505 9.45497C28.6398 9.45497 28.3844 14.737 28.3844 21.1944C28.3844 27.6518 27.8182 33.284 27.1274 33.71C26.4367 34.1376 20.0511 34.7118 12.9384 34.9864C5.82415 35.2624 0.00315939 36.0497 5.23033e-06 36.7376C-0.0110343 40.3583 17.4568 69.4663 23.0144 75.0891C31.6836 83.8594 38.4382 85.9182 53.4867 84.3768C68.4469 82.8449 70.2558 82.8449 86.9665 84.3753C99.3577 85.5096 101.272 85.2982 107.949 82.0656C112.689 79.7701 117.425 75.6318 121.29 70.4066C128.239 61.0163 141.04 38.0107 139.933 36.9032C139.519 36.4883 133.058 35.7184 125.575 35.1899L111.97 34.2291V22.8935C111.97 16.6586 111.53 11.1194 110.993 10.5814C110.456 10.045 105.15 12.0565 99.2047 15.051C93.2575 18.0469 87.722 20.4986 86.9019 20.4986C86.0818 20.4986 82.024 15.8839 77.8841 10.2438C73.7443 4.60364 70.3173 -0.0063042 70.2669 6.47143e-06C70.218 0.00631708 68.5731 2.31286 66.6112 5.12743ZM68.2655 9.84939C67.436 10.9348 64.9111 14.3142 62.6543 17.3606L58.5491 22.8998L64.5641 26.194L70.5775 29.4898L76.2077 26.0915L81.8363 22.6916L76.7958 15.3349C71.336 7.36929 70.5491 6.86444 68.2655 9.84939ZM32.6929 17.7487C32.2734 18.8389 31.8208 27.535 31.6852 37.0752C31.4817 51.3862 31.958 55.384 34.412 59.9403C37.9903 66.5839 47.6768 72.5002 55.0338 72.5364L60.3926 72.5617L55.0717 68.9741C41.9267 60.1123 39.2804 47.8854 47.3424 33.2557C49.9304 28.5574 51.8686 24.5517 51.6494 24.3544C51.1495 23.9017 34.218 15.7656 33.778 15.7656C33.5998 15.7656 33.1109 16.6586 32.6929 17.7487ZM97.5819 20.0332L88.714 23.8827L93.2165 32.0503C101.906 47.816 98.424 62.7439 84.3439 70.0879L79.6394 72.5428L85.2442 72.5522C93.8835 72.5664 105.046 64.7759 107.128 57.2788C108.905 50.8766 109.109 27.2053 107.446 20.314L106.45 16.1837L97.5819 20.0332ZM51.4365 33.5144C43.529 47.1376 45.3175 58.1607 56.5573 65.093L61.8609 68.3651L59.3172 63.4428C57.9167 60.7355 56.7718 55.0969 56.7718 50.9129C56.7718 44.7679 57.6928 42.1884 61.5598 37.4933L66.3477 31.6827L61.6386 29.2452C59.0475 27.9058 56.5683 26.8093 56.1283 26.8093C55.6883 26.8093 53.5766 29.8274 51.4365 33.5144ZM78.4566 28.6425C73.5062 30.4521 73.0756 31.8673 76.5894 34.7844C83.4575 40.4861 85.7065 54.409 81.1755 63.1746C79.8523 65.7335 79.447 67.8287 80.275 67.8287C83.1894 67.8287 92.8426 57.353 93.9324 53.0081C95.2319 47.8286 92.3807 37.2724 88.0279 31.1479C84.6356 26.3739 84.653 26.3786 78.4566 28.6425ZM66.7232 37.4586C59.3519 43.9238 58.1139 51.7791 62.965 61.2924C67.3634 69.9175 69.8852 71.6372 73.0315 68.16C76.4159 64.4193 80.428 54.622 80.428 50.102C80.428 46.3503 73.41 34.6976 71.15 34.6976C70.4466 34.6976 68.4548 35.9408 66.7232 37.4586ZM11.5458 51.4872C15.1684 58.1166 21.7448 67.2923 26.1607 71.877C35.5538 81.6317 41.7659 83.5612 53.2864 80.3002L60.7145 78.1987L52.799 76.4191C37.5754 72.9971 30.7752 66.5019 28.2803 52.997C27.3498 47.9674 26.9713 42.8573 27.4381 41.641C28.1178 39.8692 25.9746 39.4306 16.6225 39.4306H4.95833L11.5458 51.4872ZM112.916 41.641C114.737 46.3866 110.437 62.0875 106.051 66.7038C100.802 72.2304 94.4607 75.7091 89.5749 75.7407C87.5799 75.7549 84.9384 76.4049 83.7051 77.1858C80.4737 79.2321 93.6989 82.5515 100.214 81.3288C108.188 79.8332 118.279 69.6493 126.558 54.7467C130.678 47.3285 134.049 40.849 134.049 40.3457C134.049 39.8424 129.103 39.4306 123.058 39.4306C114.283 39.4306 112.239 39.8755 112.916 41.641Z" fill="white"/>
</svg>
