<svg width="24" height="24" viewBox="0 0 24 24" fill="none" xmlns="http://www.w3.org/2000/svg">
<path d="M11.5 6C10.0413 6 8.64236 6.57946 7.61091 7.61091C6.57946 8.64236 6 10.0413 6 11.5C6 12.9587 6.57946 14.3576 7.61091 15.3891C8.64236 16.4205 10.0413 17 11.5 17C12.9587 17 14.3576 16.4205 15.3891 15.3891C16.4205 14.3576 17 12.9587 17 11.5C17 10.0413 16.4205 8.64236 15.3891 7.61091C14.3576 6.57946 12.9587 6 11.5 6ZM11.5 15.0719C11.0308 15.0719 10.5661 14.9795 10.1326 14.7999C9.69913 14.6204 9.30523 14.3572 8.97344 14.0254C8.64165 13.6936 8.37845 13.2997 8.19889 12.8662C8.01932 12.4327 7.9269 11.968 7.9269 11.4988C7.9269 11.0296 8.01932 10.565 8.19889 10.1314C8.37845 9.69794 8.64165 9.30404 8.97344 8.97225C9.30523 8.64046 9.69913 8.37726 10.1326 8.1977C10.5661 8.01813 11.0308 7.92571 11.5 7.92571C12.4476 7.92571 13.3565 8.30216 14.0266 8.97225C14.6966 9.64234 15.0731 10.5512 15.0731 11.4988C15.0731 12.4465 14.6966 13.3553 14.0266 14.0254C13.3565 14.6955 12.4476 15.0719 11.5 15.0719Z" fill="black"/>
<path d="M17 7C17.5523 7 18 6.55228 18 6C18 5.44771 17.5523 5 17 5C16.4477 5 16 5.44771 16 6C16 6.55228 16.4477 7 17 7Z" fill="black"/>
<path d="M21.4437 4.61643C21.1738 3.92037 20.7612 3.28825 20.2325 2.76055C19.7038 2.23284 19.0705 1.82117 18.3733 1.5519C17.5574 1.24609 16.6954 1.08074 15.8241 1.06287C14.7011 1.01397 14.3454 1 11.4977 1C8.64993 1 8.28493 1 7.17126 1.06287C6.3006 1.07982 5.43924 1.24521 4.62439 1.5519C3.92696 1.82086 3.29354 2.23242 2.76477 2.76016C2.23601 3.28791 1.82357 3.92019 1.55392 4.61643C1.24758 5.43102 1.08235 6.29173 1.0653 7.16168C1.01516 8.28177 1 8.63689 1 11.4814C1 14.3247 1 14.6868 1.0653 15.8011C1.0828 16.672 1.24722 17.5313 1.55392 18.3475C1.82432 19.0435 2.23716 19.6755 2.76606 20.2032C3.29495 20.7308 3.92827 21.1426 4.62556 21.412C5.43887 21.7301 6.30058 21.9073 7.17359 21.936C8.29659 21.9849 8.65227 22 11.5 22C14.3477 22 14.7127 22 15.8264 21.936C16.6976 21.9183 17.5596 21.7533 18.3756 21.4481C19.0727 21.1782 19.7057 20.7662 20.2344 20.2383C20.7631 19.7105 21.1758 19.0784 21.4461 18.3824C21.7528 17.5674 21.9172 16.7081 21.9347 15.8372C21.9848 14.7171 22 14.3619 22 11.5175C22 8.67299 22 8.31204 21.9347 7.19777C21.9211 6.31552 21.755 5.44224 21.4437 4.61643ZM20.0234 15.7149C20.0159 16.3859 19.8932 17.0507 19.6607 17.6803C19.4856 18.1331 19.2175 18.5442 18.8736 18.8873C18.5298 19.2305 18.1178 19.4979 17.6643 19.6725C17.0406 19.9035 16.3819 20.026 15.7168 20.0346C14.609 20.0858 14.2964 20.0986 11.4557 20.0986C8.61262 20.0986 8.32225 20.0986 7.19341 20.0346C6.52863 20.0265 5.87022 19.904 5.24711 19.6725C4.79195 19.499 4.37833 19.232 4.03302 18.8888C3.68771 18.5457 3.4184 18.1339 3.2425 17.6803C3.01329 17.0574 2.89069 16.4005 2.87983 15.737C2.82969 14.6309 2.81803 14.3189 2.81803 11.4825C2.81803 8.64504 2.81803 8.35512 2.87983 7.22688C2.88737 6.55625 3.01004 5.89187 3.2425 5.26264C3.59818 4.34398 4.32702 3.62092 5.24711 3.26929C5.87052 3.03892 6.52874 2.91646 7.19341 2.90719C8.30242 2.85712 8.61378 2.84315 11.4557 2.84315C14.2976 2.84315 14.5891 2.84315 15.7168 2.90719C16.382 2.91518 17.0408 3.03767 17.6643 3.26929C18.1178 3.44426 18.5297 3.71198 18.8735 4.05526C19.2173 4.39854 19.4855 4.8098 19.6607 5.26264C19.8899 5.8855 20.0125 6.54244 20.0234 7.20592C20.0735 8.31321 20.0863 8.62408 20.0863 11.4616C20.0863 14.2979 20.0864 14.603 20.0362 15.7161L20.0234 15.7149Z" fill="black"/>
</svg>
