<svg width="505" height="54" viewBox="0 0 505 54" fill="none" xmlns="http://www.w3.org/2000/svg">
<path fill-rule="evenodd" clip-rule="evenodd" d="M245.239 3.25702C243.995 5.04102 241.715 8.01402 240.171 9.86502L237.365 13.229L229.541 9.61502C225.239 7.62702 221.557 6.00002 221.359 6.00002C221.162 6.00002 221 9.34802 221 13.441C221 17.534 220.641 21.104 220.203 21.374C219.765 21.645 215.716 22.009 211.206 22.183C206.695 22.358 203.004 22.857 203.002 23.293C202.995 25.588 214.071 44.038 217.595 47.602C223.092 53.161 227.375 54.466 236.917 53.489C246.403 52.518 247.55 52.518 258.146 53.488C266.003 54.207 267.217 54.073 271.451 52.024C274.456 50.569 277.459 47.946 279.91 44.634C284.316 38.682 292.433 24.1 291.731 23.398C291.469 23.135 287.372 22.647 282.627 22.312L274 21.703V14.518C274 10.566 273.721 7.05502 273.381 6.71402C273.04 6.37402 269.676 7.64902 265.906 9.54702C262.135 11.446 258.625 13 258.105 13C257.585 13 255.012 10.075 252.387 6.50002C249.762 2.92502 247.589 0.00302314 247.557 0.00702314C247.526 0.0110231 246.483 1.47302 245.239 3.25702ZM246.288 6.25002C245.762 6.93802 244.161 9.08002 242.73 11.011L240.127 14.522L243.941 16.61L247.754 18.699L251.324 16.545L254.893 14.39L251.697 9.72702C248.235 4.67802 247.736 4.35802 246.288 6.25002ZM6.225 11.004C-2.522 16.338 0.632001 24.782 13.081 29.354C18.752 31.437 22 34.361 22 37.384C22 41.041 18.985 43.004 13.421 42.968C8.174 42.934 6.048 41.855 4.128 38.25C2.817 35.788 0 35.184 0 37.365C0 42.334 8.822 46.723 16.429 45.54C22.796 44.55 26 41.089 26 35.201C26 30.823 22.774 27.533 15.995 24.998C9.195 22.455 5 19.566 5 17.427C5 16.642 5.9 15.1 7 14C10.462 10.538 21 11.938 21 15.86C21 16.897 21.582 17.124 23.75 16.934C24.163 16.898 24.352 16.156 24.172 15.285C23.015 9.70302 12.48 7.19002 6.225 11.004ZM60.676 9.77702C49.536 9.98502 45.952 10.358 46.255 11.277C46.506 12.036 49.19 12.612 53.33 12.796L60 13.091V29.046V45H62.5H65V29V13H71.5C77.136 13 78 12.756 78 11.167C78 10.158 77.438 9.37102 76.75 9.41702C76.063 9.46202 68.829 9.62502 60.676 9.77702ZM327.272 9.80102C321.569 11.591 318.866 16.843 321.16 21.676C322.129 23.719 324.892 25.684 331.15 28.782C340.705 33.512 342.505 36.054 339.523 40.606C338.211 42.607 337.127 43 332.911 43C326.938 43 324.24 41.761 322.977 38.439C322.467 37.098 321.363 36 320.525 36C316.722 36 320.552 42.497 325.599 44.606C329.918 46.41 334.173 46.373 338.68 44.489C343.356 42.535 344.929 40.364 344.968 35.806C345.011 30.891 342.163 27.972 334 24.562C323.926 20.354 322.081 17.919 326 14C329.609 10.391 340 11.929 340 16.071C340 16.582 340.916 17 342.035 17C343.76 17 343.907 16.695 343 15C340.685 10.675 332.795 8.06702 327.272 9.80102ZM378.684 10.389C370.619 13.392 366.467 20.188 367.273 29.07C367.86 35.548 369.604 38.698 374.799 42.66C377.994 45.097 379.328 45.444 385.497 45.444C390.972 45.444 393.324 44.963 396.037 43.286C407.535 36.18 408.096 19.724 397.089 12.44C392.287 9.26202 384.147 8.35502 378.684 10.389ZM453.934 10.191C453.898 10.911 453.925 15.44 453.994 20.256C454.252 38.084 452.457 42.049 443.809 42.766C439.07 43.159 437.984 42.891 435.432 40.698L432.5 38.178L432.174 24.089C431.876 11.158 431.697 10 429.996 10C428.495 10 428.01 11.071 427.437 15.66C426.473 23.371 427.671 37.568 429.524 40.396C432.715 45.266 443.107 47.354 449 44.309C454.737 41.344 455.997 37.474 455.998 22.809C455.999 15.425 455.582 9.86002 455 9.50002C454.45 9.16002 453.97 9.47102 453.934 10.191ZM102.425 15.75C101.023 18.913 98.721 24.425 97.308 28C94.756 34.461 91.164 42.816 90.322 44.25C90.08 44.662 90.528 45 91.318 45C92.108 45 93.722 42.75 94.905 40L97.056 35H105.894H114.733L116.811 40C118.537 44.153 119.322 45 121.445 45C122.85 45 124 44.841 124 44.647C124 44.453 121.49 38.94 118.421 32.397C115.353 25.854 111.74 18.138 110.392 15.25C109.044 12.362 107.274 10 106.458 10C105.615 10 103.875 12.48 102.425 15.75ZM147 27.5V45H149.5C151.944 45 152 44.833 152 37.5V30H154.992C157.583 30 158.6 30.927 162.583 36.916C167.167 43.81 171.322 46.858 174.482 45.645C176.464 44.885 176.442 43 174.452 43C172.643 43 168.987 39.25 164.916 33.22L162.027 28.94L164.413 28.033C167.783 26.752 170.005 23.149 169.968 19.027C169.907 12.235 166.218 10 155.066 10H147V27.5ZM223.732 11.257C223.466 11.948 223.179 17.46 223.093 23.507C222.964 32.578 223.266 35.112 224.822 38C227.091 42.211 233.233 45.961 237.898 45.984L241.296 46L237.922 43.726C229.587 38.109 227.909 30.359 233.021 21.086C234.662 18.108 235.891 15.569 235.752 15.444C235.435 15.157 224.699 10 224.42 10C224.307 10 223.997 10.566 223.732 11.257ZM264.877 12.705L259.254 15.145L262.109 20.322C267.619 30.315 265.411 39.777 256.483 44.432L253.5 45.988L257.054 45.994C262.532 46.003 269.61 41.065 270.93 36.313C272.057 32.255 272.186 17.251 271.132 12.883L270.5 10.265L264.877 12.705ZM482 27.5V45H493.583C502.404 45 505.068 44.702 504.752 43.75C504.471 42.9 501.401 42.408 495.169 42.212L486 41.925V25.962C486 10.667 485.916 10 484 10C482.076 10 482 10.667 482 27.5ZM152 19.37V27H155.865C161.176 27 165 23.895 165 19.582C165 15.284 162.243 12.894 156.541 12.252L152 11.74V19.37ZM377.866 14.959C375.892 16.586 373.708 19.291 373.012 20.97C370.213 27.727 373.942 39.286 379.779 41.945C381.052 42.525 383.943 43 386.203 43C393.999 43 400.004 35.939 399.996 26.782C399.986 14.847 386.648 7.72002 377.866 14.959ZM102.171 22.926C100.427 26.827 99 30.464 99 31.009C99 31.569 102.022 32 105.944 32H112.888L110.993 27.75C109.951 25.413 108.254 21.775 107.22 19.668L105.341 15.835L102.171 22.926ZM235.617 21.25C230.603 29.885 231.737 36.872 238.864 41.266L242.227 43.34L240.614 40.22C239.726 38.504 239 34.93 239 32.278C239 28.383 239.584 26.748 242.036 23.772L245.072 20.089L242.086 18.544C240.443 17.695 238.871 17 238.592 17C238.313 17 236.974 18.913 235.617 21.25ZM252.75 18.162C249.611 19.309 249.338 20.206 251.566 22.055C255.921 25.669 257.347 34.494 254.474 40.05C253.635 41.672 253.378 43 253.903 43C255.751 43 261.872 36.36 262.563 33.606C263.387 30.323 261.579 23.632 258.819 19.75C256.668 16.724 256.679 16.727 252.75 18.162ZM245.31 23.75C240.636 27.848 239.851 32.827 242.927 38.857C245.716 44.324 247.315 45.414 249.31 43.21C251.456 40.839 254 34.629 254 31.764C254 29.386 249.55 22 248.117 22C247.671 22 246.408 22.788 245.31 23.75ZM210.323 32.642C212.62 36.844 216.79 42.66 219.59 45.566C225.546 51.749 229.485 52.972 236.79 50.905L241.5 49.573L236.481 48.445C226.828 46.276 222.516 42.159 220.934 33.599C220.344 30.411 220.104 27.172 220.4 26.401C220.831 25.278 219.472 25 213.542 25H206.146L210.323 32.642ZM274.6 26.401C275.755 29.409 273.028 39.361 270.247 42.287C266.919 45.79 262.898 47.995 259.8 48.015C258.535 48.024 256.86 48.436 256.078 48.931C254.029 50.228 262.415 52.332 266.546 51.557C271.602 50.609 278.001 44.154 283.25 34.708C285.863 30.006 288 25.899 288 25.58C288 25.261 284.864 25 281.031 25C275.467 25 274.171 25.282 274.6 26.401Z" fill="black"/>
</svg>
