<svg width="89" height="54" viewBox="0 0 89 54" fill="none" xmlns="http://www.w3.org/2000/svg">
<g clip-path="url(#clip0_497_719)">
<path fill-rule="evenodd" clip-rule="evenodd" d="M42.239 3.25702C40.995 5.04102 38.7149 8.01402 37.1709 9.86502L34.3649 13.229L26.541 9.61502C22.239 7.62702 18.557 6.00002 18.359 6.00002C18.162 6.00002 18 9.34802 18 13.441C18 17.534 17.641 21.104 17.203 21.374C16.765 21.645 12.716 22.009 8.20595 22.183C3.69495 22.358 0.00395644 22.857 0.00195644 23.293C-0.00504356 25.588 11.071 44.038 14.595 47.602C20.092 53.161 24.375 54.466 33.917 53.489C43.403 52.518 44.55 52.518 55.146 53.488C63.003 54.207 64.2169 54.073 68.4509 52.024C71.4559 50.569 74.459 47.946 76.91 44.634C81.316 38.682 89.4329 24.1 88.7309 23.398C88.4689 23.135 84.372 22.647 79.627 22.312L71 21.703V14.518C71 10.566 70.721 7.05502 70.381 6.71402C70.04 6.37402 66.676 7.64902 62.906 9.54702C59.135 11.446 55.625 13 55.105 13C54.585 13 52.012 10.075 49.387 6.50002C46.762 2.92502 44.589 0.00302314 44.557 0.00702314C44.526 0.0110231 43.483 1.47302 42.239 3.25702ZM43.288 6.25002C42.762 6.93802 41.161 9.08002 39.73 11.011L37.127 14.522L40.941 16.61L44.754 18.699L48.324 16.545L51.893 14.39L48.6969 9.72702C45.2349 4.67802 44.736 4.35802 43.288 6.25002ZM20.732 11.257C20.466 11.948 20.179 17.46 20.093 23.507C19.964 32.578 20.266 35.112 21.822 38C24.091 42.211 30.233 45.961 34.898 45.984L38.2959 46L34.922 43.726C26.587 38.109 24.909 30.359 30.021 21.086C31.662 18.108 32.891 15.569 32.752 15.444C32.435 15.157 21.699 10 21.42 10C21.307 10 20.997 10.566 20.732 11.257ZM61.877 12.705L56.254 15.145L59.109 20.322C64.619 30.315 62.411 39.777 53.483 44.432L50.5 45.988L54.0539 45.994C59.5319 46.003 66.6099 41.065 67.9299 36.313C69.0569 32.255 69.1859 17.251 68.1319 12.883L67.5 10.265L61.877 12.705ZM32.617 21.25C27.603 29.885 28.737 36.872 35.864 41.266L39.2269 43.34L37.614 40.22C36.726 38.504 36 34.93 36 32.278C36 28.383 36.584 26.748 39.036 23.772L42.0719 20.089L39.086 18.544C37.443 17.695 35.871 17 35.592 17C35.313 17 33.974 18.913 32.617 21.25ZM49.75 18.162C46.611 19.309 46.338 20.206 48.566 22.055C52.921 25.669 54.347 34.494 51.474 40.05C50.635 41.672 50.378 43 50.903 43C52.751 43 58.8719 36.36 59.5629 33.606C60.3869 30.323 58.579 23.632 55.819 19.75C53.668 16.724 53.679 16.727 49.75 18.162ZM42.31 23.75C37.636 27.848 36.851 32.827 39.927 38.857C42.716 44.324 44.315 45.414 46.31 43.21C48.456 40.839 51 34.629 51 31.764C51 29.386 46.55 22 45.117 22C44.671 22 43.408 22.788 42.31 23.75ZM7.32296 32.642C9.61996 36.844 13.79 42.66 16.59 45.566C22.546 51.749 26.485 52.972 33.79 50.905L38.5 49.573L33.4809 48.445C23.8279 46.276 19.516 42.159 17.934 33.599C17.344 30.411 17.104 27.172 17.4 26.401C17.831 25.278 16.472 25 10.542 25H3.14595L7.32296 32.642ZM71.6 26.401C72.755 29.409 70.028 39.361 67.247 42.287C63.919 45.79 59.8979 47.995 56.7999 48.015C55.5349 48.024 53.86 48.436 53.078 48.931C51.029 50.228 59.4149 52.332 63.5459 51.557C68.6019 50.609 75.001 44.154 80.25 34.708C82.863 30.006 85 25.899 85 25.58C85 25.261 81.864 25 78.031 25C72.467 25 71.171 25.282 71.6 26.401Z" fill="white"/>
</g>
<defs>
<clipPath id="clip0_497_719">
<rect width="89" height="54" fill="white"/>
</clipPath>
</defs>
</svg>
