<svg width="315" height="37" viewBox="0 0 315 37" fill="none" xmlns="http://www.w3.org/2000/svg">
<path fill-rule="evenodd" clip-rule="evenodd" d="M153.039 2.30396C152.262 3.51706 150.839 5.53867 149.876 6.79733L148.125 9.08481L143.242 6.62733C140.558 5.27552 138.26 4.16917 138.136 4.16917C138.014 4.16917 137.912 6.44578 137.912 9.22897C137.912 12.0122 137.688 14.4397 137.415 14.6233C137.142 14.8076 134.615 15.0551 131.801 15.1734C128.986 15.2924 126.682 15.6317 126.681 15.9282C126.677 17.4888 133.589 30.0346 135.788 32.4581C139.218 36.2381 141.891 37.1255 147.845 36.4612C153.765 35.8009 154.481 35.8009 161.093 36.4605C165.996 36.9494 166.754 36.8583 169.396 35.465C171.271 34.4756 173.145 32.692 174.675 30.4399C177.424 26.3926 182.489 16.477 182.051 15.9996C181.888 15.8208 179.331 15.489 176.37 15.2612L170.986 14.847V9.96132C170.986 7.274 170.812 4.88656 170.6 4.65469C170.387 4.42349 168.288 5.29047 165.936 6.58109C163.582 7.87239 161.392 8.9291 161.067 8.9291C160.743 8.9291 159.137 6.94013 157.499 4.50917C155.861 2.07821 154.505 0.091277 154.485 0.0939969C154.466 0.0967169 153.815 1.09086 153.039 2.30396ZM153.693 4.33917C153.365 4.807 152.366 6.26354 151.473 7.5766L149.848 9.96404L152.229 11.3839L154.608 12.8044L156.836 11.3397L159.063 9.87428L157.069 6.70349C154.908 3.27023 154.597 3.05263 153.693 4.33917ZM3.88464 7.57184C-1.57382 11.1989 0.394393 16.9407 8.16305 20.0496C11.702 21.4661 13.7288 23.4543 13.7288 25.51C13.7288 27.9967 11.8474 29.3315 8.37522 29.307C5.10089 29.2839 3.77418 28.5502 2.57603 26.0988C1.75792 24.4247 0 24.014 0 25.497C0 28.8759 5.50527 31.8604 10.2523 31.0559C14.2256 30.3828 16.225 28.0293 16.225 24.0255C16.225 21.0485 14.2118 18.8114 9.98149 17.0876C5.73803 15.3584 3.12019 13.3939 3.12019 11.9394C3.12019 11.4056 3.68183 10.3571 4.36827 9.60909C6.52869 7.25496 13.1048 8.20695 13.1048 10.8739C13.1048 11.579 13.468 11.7334 14.8209 11.6042C15.0786 11.5797 15.1966 11.0751 15.0843 10.4829C14.3622 6.68717 7.788 4.97836 3.88464 7.57184ZM37.8641 6.73749C30.9124 6.87893 28.6758 7.13257 28.8649 7.75747C29.0215 8.27359 30.6964 8.66526 33.28 8.79038L37.4423 8.99097V19.8402V30.6887H39.0024H40.5625V19.8089V8.9291H44.6187C48.1358 8.9291 48.675 8.76318 48.675 7.68268C48.675 6.99657 48.3243 6.46142 47.8949 6.49269C47.4662 6.52329 42.9519 6.63413 37.8641 6.73749ZM204.23 6.75381C200.671 7.97099 198.985 11.5423 200.416 14.8287C201.021 16.2179 202.745 17.5541 206.65 19.6607C212.613 22.877 213.736 24.6056 211.875 27.7009C211.057 29.0615 210.38 29.3288 207.749 29.3288C204.022 29.3288 202.338 28.4863 201.55 26.2273C201.232 25.3155 200.543 24.5688 200.02 24.5688C197.647 24.5688 200.037 28.9867 203.186 30.4208C205.881 31.6475 208.537 31.6224 211.349 30.3413C214.267 29.0126 215.249 27.5363 215.273 24.4369C215.3 21.0948 213.523 19.1099 208.429 16.7911C202.142 13.9297 200.991 12.274 203.436 9.60909C205.689 7.155 212.173 8.20083 212.173 11.0173C212.173 11.3648 212.745 11.6491 213.443 11.6491C214.519 11.6491 214.611 11.4417 214.045 10.2891C212.6 7.34812 207.677 5.57471 204.23 6.75381ZM236.313 7.15364C231.28 9.19565 228.689 13.8169 229.192 19.8565C229.559 24.2615 230.647 26.4035 233.889 29.0976C235.883 30.7547 236.715 30.9907 240.565 30.9907C243.982 30.9907 245.449 30.6636 247.142 29.5233C254.317 24.6912 254.668 13.5013 247.799 8.5483C244.802 6.3873 239.722 5.77055 236.313 7.15364ZM283.272 7.01901C283.25 7.5086 283.267 10.5883 283.31 13.8631C283.471 25.9859 282.35 28.6821 276.954 29.1697C273.996 29.4369 273.319 29.2547 271.726 27.7634L269.897 26.0499L269.693 16.4695C269.507 7.67656 269.395 6.88913 268.334 6.88913C267.397 6.88913 267.095 7.6174 266.737 10.7379C266.135 15.9813 266.883 25.6351 268.039 27.5581C270.031 30.8696 276.516 32.2894 280.193 30.2189C283.773 28.2027 284.56 25.5711 284.56 15.5991C284.561 10.5781 284.301 6.79393 283.937 6.54913C283.594 6.31794 283.295 6.52942 283.272 7.01901ZM63.9171 10.7991C63.0422 12.9499 61.6057 16.698 60.7239 19.1289C59.1314 23.5223 56.8898 29.2037 56.3644 30.1788C56.2134 30.4589 56.4929 30.6887 56.9859 30.6887C57.4789 30.6887 58.4861 29.1588 59.2244 27.2888L60.5667 23.8889H66.0819H71.5978L72.8945 27.2888C73.9716 30.1128 74.4615 30.6887 75.7863 30.6887C76.6631 30.6887 77.3807 30.5806 77.3807 30.4487C77.3807 30.3168 75.8144 26.568 73.8992 22.1188C71.9847 17.6697 69.73 12.4229 68.8888 10.4591C68.0476 8.49526 66.9431 6.88913 66.4339 6.88913C65.9078 6.88913 64.822 8.5755 63.9171 10.7991ZM91.7336 18.7889V30.6887H93.2937C94.8189 30.6887 94.8538 30.5752 94.8538 25.5888V20.4889H96.7209C98.3378 20.4889 98.9725 21.1193 101.458 25.1917C104.319 29.8796 106.911 31.9522 108.883 31.1273C110.12 30.6105 110.107 29.3288 108.865 29.3288C107.736 29.3288 105.454 26.7788 102.914 22.6785L101.111 19.7681L102.6 19.1514C104.703 18.2803 106.09 15.8303 106.067 13.0274C106.028 8.40891 103.726 6.88913 96.7671 6.88913H91.7336V18.7889ZM139.617 7.74387C139.451 8.21375 139.272 11.9618 139.219 16.0737C139.138 22.2419 139.327 23.965 140.298 25.9288C141.713 28.7923 145.546 31.3422 148.457 31.3579L150.578 31.3687L148.472 29.8224C143.271 26.0029 142.224 20.733 145.414 14.4275C146.438 12.4025 147.205 10.676 147.118 10.591C146.92 10.3958 140.221 6.88913 140.047 6.88913C139.976 6.88913 139.783 7.274 139.617 7.74387ZM165.293 8.7285L161.784 10.3877L163.566 13.908C167.005 20.7031 165.627 27.1372 160.055 30.3025L158.194 31.3606L160.412 31.3647C163.83 31.3708 168.247 28.013 169.071 24.7817C169.774 22.0223 169.854 11.8197 169.197 8.84954L168.802 7.06932L165.293 8.7285ZM300.786 18.7889V30.6887H308.015C313.519 30.6887 315.182 30.4861 314.985 29.8388C314.809 29.2608 312.893 28.9262 309.004 28.7929L303.283 28.5978V17.7431C303.283 7.34268 303.23 6.88913 302.035 6.88913C300.834 6.88913 300.786 7.34268 300.786 18.7889ZM94.8538 13.2606V18.4489H97.2657C100.58 18.4489 102.966 16.3376 102.966 13.4048C102.966 10.4822 101.246 8.85702 97.6876 8.42046L94.8538 8.07231V13.2606ZM235.803 10.2612C234.571 11.3675 233.208 13.2069 232.774 14.3486C231.027 18.9433 233.354 26.8033 236.997 28.6114C237.791 29.0058 239.595 29.3288 241.005 29.3288C245.87 29.3288 249.618 24.5274 249.613 18.3007C249.607 10.185 241.283 5.33875 235.803 10.2612ZM63.7586 15.6787C62.6703 18.3313 61.7798 20.8044 61.7798 21.175C61.7798 21.5558 63.6656 21.8489 66.1131 21.8489H70.4464L69.2639 18.9589C68.6136 17.3698 67.5546 14.896 66.9094 13.4633L65.7368 10.8569L63.7586 15.6787ZM147.034 14.539C143.905 20.4107 144.613 25.1618 149.06 28.1497L151.159 29.56L150.152 27.4384C149.598 26.2715 149.145 23.8413 149.145 22.0379C149.145 19.3894 149.51 18.2776 151.04 16.2539L152.934 13.7495L151.071 12.699C150.046 12.1216 149.065 11.6491 148.891 11.6491C148.716 11.6491 147.881 12.9499 147.034 14.539ZM157.726 12.4392C155.767 13.2191 155.596 13.8291 156.987 15.0864C159.705 17.5439 160.594 23.5448 158.802 27.3228C158.278 28.4257 158.118 29.3288 158.445 29.3288C159.598 29.3288 163.418 24.8136 163.849 22.941C164.364 20.7085 163.235 16.1587 161.513 13.519C160.171 11.4614 160.178 11.4634 157.726 12.4392ZM153.083 16.239C150.166 19.0256 149.676 22.4112 151.596 26.5116C153.336 30.2291 154.334 30.9703 155.579 29.4716C156.918 27.8593 158.506 23.6366 158.506 21.6884C158.506 20.0714 155.729 15.049 154.835 15.049C154.556 15.049 153.768 15.5848 153.083 16.239ZM131.25 22.2854C132.683 25.1428 135.285 29.0976 137.033 31.0736C140.749 35.278 143.207 36.1096 147.766 34.7041L150.705 33.7983L147.573 33.0313C141.549 31.5564 138.859 28.7569 137.871 22.9362C137.503 20.7684 137.353 18.5659 137.538 18.0416C137.807 17.278 136.959 17.089 133.258 17.089H128.643L131.25 22.2854ZM171.361 18.0416C172.082 20.087 170.38 26.8543 168.644 28.8439C166.568 31.2259 164.058 32.7253 162.125 32.7389C161.336 32.745 160.29 33.0252 159.802 33.3618C158.524 34.2437 163.757 35.6744 166.335 35.1474C169.49 34.5028 173.483 30.1135 176.759 23.6903C178.389 20.493 179.723 17.7003 179.723 17.4834C179.723 17.2664 177.766 17.089 175.374 17.089C171.902 17.089 171.093 17.2807 171.361 18.0416Z" fill="#FFF9F9"/>
</svg>
