<svg width="24" height="24" viewBox="0 0 24 24" fill="none" xmlns="http://www.w3.org/2000/svg">
<path d="M7.75 18.8079L11.423 16.5189L7.75 14.2309V18.8079ZM13.308 7.36495H16.692V6.48095H13.308V7.36495ZM3.616 21.9049C3.17133 21.9049 2.791 21.7466 2.475 21.4299C2.159 21.1133 2.00067 20.7333 2 20.2899V12.7499C2 12.3059 2.15833 11.9259 2.475 11.6099C2.791 11.2926 3.171 11.1339 3.615 11.1339H14.385C14.829 11.1339 15.209 11.2923 15.525 11.6089C15.8417 11.9256 16 12.3059 16 12.7499V20.2889C16 20.7329 15.8417 21.1129 15.525 21.4289C15.2083 21.7449 14.8283 21.9033 14.385 21.9039L3.616 21.9049ZM17.885 13.0969V12.7509C17.885 12.0663 17.705 11.4443 17.345 10.8849C16.985 10.3263 16.515 9.90328 15.935 9.61595H17C17.748 9.61595 18.3837 9.35495 18.907 8.83295C19.4303 8.31095 19.692 7.67595 19.692 6.92795C19.692 6.17995 19.4303 5.54395 18.907 5.01995C18.3837 4.49595 17.748 4.23295 17 4.23095H16.058V5.11495H17C17.502 5.11495 17.9287 5.29128 18.28 5.64395C18.6313 5.99661 18.8073 6.42461 18.808 6.92795C18.8087 7.43128 18.6327 7.85761 18.28 8.20695C17.9273 8.55628 17.5007 8.73061 17 8.72995H16.058V9.61495H15.692C15.452 9.61495 15.2267 9.55395 15.016 9.43195C14.8053 9.30995 14.595 9.24895 14.385 9.24895H13.942V8.72895H13C12.498 8.72895 12.0713 8.55295 11.72 8.20095C11.3687 7.84895 11.1927 7.42128 11.192 6.91795C11.1913 6.41461 11.367 5.98795 11.719 5.63795C12.071 5.28795 12.498 5.11428 13 5.11695H13.942V4.22995H13C12.252 4.22995 11.6163 4.49161 11.093 5.01495C10.5697 5.53828 10.308 6.17395 10.308 6.92195C10.308 7.41728 10.433 7.86761 10.683 8.27295C10.933 8.67895 11.258 9.00428 11.658 9.24895H8V3.71195C8 3.26728 8.15833 2.88695 8.475 2.57095C8.79167 2.25495 9.17167 2.09661 9.615 2.09595H20.385C20.829 2.09595 21.209 2.25428 21.525 2.57095C21.841 2.88761 21.9993 3.26728 22 3.70995V11.4799C22 11.9239 21.8417 12.3039 21.525 12.6199C21.209 12.9366 20.829 13.0949 20.385 13.0949L17.885 13.0969Z" fill="black" fill-opacity="0.580392"/>
</svg>
