<svg width="24" height="24" viewBox="0 0 24 24" fill="none" xmlns="http://www.w3.org/2000/svg">
<g clip-path="url(#clip0_491_757)">
<path fill-rule="evenodd" clip-rule="evenodd" d="M4.99986 10.416C5.01792 8.89991 5.5654 7.43785 6.54756 6.2828C7.52972 5.12775 8.88476 4.35237 10.3782 4.09085C11.8717 3.82932 13.4095 4.0981 14.7258 4.85067C16.042 5.60325 17.0537 6.79226 17.5859 8.21198C18.9852 8.59787 20.1972 9.4778 20.9975 10.6888C21.7978 11.8998 22.1322 13.3597 21.9386 14.7983C21.7451 16.2369 21.0367 17.5566 19.9448 18.513C18.8529 19.4694 17.4514 19.9976 15.9999 20H6.99986C5.85057 20.0007 4.73611 19.6055 3.84405 18.8809C2.95199 18.1563 2.3368 17.1464 2.10203 16.0214C1.86725 14.8963 2.02722 13.7247 2.55501 12.7038C3.0828 11.6829 3.94619 10.8749 4.99986 10.416Z" fill="black" fill-opacity="0.580392"/>
</g>
<defs>
<clipPath id="clip0_491_757">
<rect width="24" height="24" fill="white"/>
</clipPath>
</defs>
</svg>
