<svg width="24" height="24" viewBox="0 0 24 24" fill="none" xmlns="http://www.w3.org/2000/svg">
<path d="M17.75 2.00098C18.3201 2.00091 18.869 2.21727 19.2858 2.60635C19.7025 2.99542 19.956 3.52819 19.995 4.09698L20 4.24998V14.378C19.8793 14.458 19.7657 14.5513 19.659 14.658L16.25 18.066L15.342 17.156C14.9428 16.7555 14.407 16.5208 13.842 16.499H16.25C16.4489 16.499 16.6397 16.42 16.7803 16.2793C16.921 16.1387 17 15.9479 17 15.749C17 15.5501 16.921 15.3593 16.7803 15.2186C16.6397 15.078 16.4489 14.999 16.25 14.999H11.246C11.0471 14.999 10.8563 15.078 10.7157 15.2186C10.575 15.3593 10.496 15.5501 10.496 15.749C10.496 15.9479 10.575 16.1387 10.7157 16.2793C10.8563 16.42 11.0471 16.499 11.246 16.499H13.659C13.2221 16.5167 12.7999 16.6613 12.4439 16.9151C12.0879 17.169 11.8135 17.521 11.6544 17.9283C11.4953 18.3355 11.4583 18.7803 11.5479 19.2083C11.6375 19.6362 11.8499 20.0288 12.159 20.338L13.818 21.998H6.25C5.67987 21.998 5.13098 21.7817 4.71425 21.3926C4.29751 21.0035 4.04402 20.4708 4.005 19.902L4 19.75V4.25098C3.99993 3.68085 4.2163 3.13196 4.60537 2.71522C4.99444 2.29849 5.52721 2.045 6.096 2.00598L6.25 2.00098H17.75ZM9 7.75098C9 7.48576 8.89464 7.23141 8.70711 7.04387C8.51957 6.85633 8.26522 6.75098 8 6.75098C7.73478 6.75098 7.48043 6.85633 7.29289 7.04387C7.10536 7.23141 7 7.48576 7 7.75098C7 8.01619 7.10536 8.27055 7.29289 8.45808C7.48043 8.64562 7.73478 8.75098 8 8.75098C8.26522 8.75098 8.51957 8.64562 8.70711 8.45808C8.89464 8.27055 9 8.01619 9 7.75098ZM11.246 6.99998C11.0471 6.99998 10.8563 7.07899 10.7157 7.21965C10.575 7.3603 10.496 7.55106 10.496 7.74998C10.496 7.94889 10.575 8.13965 10.7157 8.28031C10.8563 8.42096 11.0471 8.49998 11.246 8.49998H16.25C16.4489 8.49998 16.6397 8.42096 16.7803 8.28031C16.921 8.13965 17 7.94889 17 7.74998C17 7.55106 16.921 7.3603 16.7803 7.21965C16.6397 7.07899 16.4489 6.99998 16.25 6.99998H11.246ZM10.496 11.75C10.496 12.164 10.832 12.5 11.246 12.5H16.25C16.3485 12.5 16.446 12.4806 16.537 12.4429C16.628 12.4052 16.7107 12.35 16.7803 12.2803C16.85 12.2107 16.9052 12.128 16.9429 12.037C16.9806 11.946 17 11.8485 17 11.75C17 11.6515 16.9806 11.554 16.9429 11.463C16.9052 11.372 16.85 11.2893 16.7803 11.2196C16.7107 11.15 16.628 11.0948 16.537 11.0571C16.446 11.0194 16.3485 11 16.25 11H11.246C11.0471 11 10.8563 11.079 10.7157 11.2196C10.575 11.3603 10.496 11.5511 10.496 11.75ZM9 11.75C9 11.4848 8.89464 11.2304 8.70711 11.0429C8.51957 10.8553 8.26522 10.75 8 10.75C7.73478 10.75 7.48043 10.8553 7.29289 11.0429C7.10536 11.2304 7 11.4848 7 11.75C7 12.0152 7.10536 12.2695 7.29289 12.4571C7.48043 12.6446 7.73478 12.75 8 12.75C8.26522 12.75 8.51957 12.6446 8.70711 12.4571C8.89464 12.2695 9 12.0152 9 11.75ZM9 15.748C9 15.4828 8.89464 15.2284 8.70711 15.0409C8.51957 14.8533 8.26522 14.748 8 14.748C7.73478 14.748 7.48043 14.8533 7.29289 15.0409C7.10536 15.2284 7 15.4828 7 15.748C7 16.0132 7.10536 16.2675 7.29289 16.4551C7.48043 16.6426 7.73478 16.748 8 16.748C8.26522 16.748 8.51957 16.6426 8.70711 16.4551C8.89464 16.2675 9 16.0132 9 15.748ZM16.25 20.189L20.72 15.719C20.7892 15.6474 20.872 15.5903 20.9635 15.551C21.055 15.5118 21.1535 15.4911 21.2531 15.4903C21.3526 15.4895 21.4514 15.5085 21.5435 15.5463C21.6357 15.584 21.7194 15.6397 21.7898 15.7102C21.8602 15.7806 21.9158 15.8644 21.9535 15.9566C21.9912 16.0488 22.0101 16.1476 22.0092 16.2471C22.0083 16.3467 21.9875 16.4451 21.9482 16.5366C21.9088 16.6281 21.8517 16.7108 21.78 16.78L16.78 21.78L16.729 21.827C16.5851 21.9465 16.4017 22.008 16.2149 21.9993C16.028 21.9906 15.8512 21.9124 15.719 21.78L13.219 19.279C13.0784 19.1381 12.9996 18.9472 12.9998 18.7483C12.9999 18.5493 13.0792 18.3585 13.22 18.218C13.3608 18.0774 13.5517 17.9985 13.7507 17.9987C13.9497 17.9989 14.1404 18.0781 14.281 18.219L16.25 20.189Z" fill="black" fill-opacity="0.580392"/>
</svg>
