<svg width="416" height="242" viewBox="0 0 416 242" fill="none" xmlns="http://www.w3.org/2000/svg">
<g clip-path="url(#clip0_1_33)">
<path d="M360.823 -18.322C353.464 -18.322 346.479 -17.1198 340.042 -14.954C333.953 -34.8238 312.307 -49.5156 286.563 -49.5156C275.505 -49.5156 265.203 -46.7986 256.573 -42.1328C246.703 -64.7891 220.615 -81 189.99 -81C152.24 -81 121.385 -56.395 119.281 -25.3707C112.234 -27.3411 104.703 -28.4002 96.8542 -28.4002C57.7188 -28.4002 26 -1.96788 26 30.6233C26 63.2101 57.7188 89.6424 96.8229 89.6424C107.328 89.6424 117.286 87.7196 126.234 84.3038C140.75 103.449 166.354 116.196 195.531 116.196C221.422 116.196 244.51 106.166 259.516 90.5321C267.688 97.2943 278.911 101.452 291.323 101.452C314.271 101.452 333.172 87.2162 336.089 68.7656C343.536 71.8689 351.932 73.6484 360.823 73.6484C391.302 73.6484 416.005 53.0625 416.005 27.6632C416.005 2.26389 391.302 -18.322 360.823 -18.322Z" fill="#14204B" fill-opacity="0.35"/>
<path d="M237.891 106.713C230.526 106.713 223.542 107.915 217.104 110.081C211.016 90.2023 189.365 75.5017 163.615 75.5017C152.557 75.5017 142.25 78.2188 133.62 82.8889C123.745 60.2196 97.651 44 67.0208 44C29.2656 44 -1.59375 68.6181 -3.70312 99.6597C-10.7448 97.6892 -18.2812 96.6302 -26.1302 96.6302C-65.276 96.6302 -97 123.076 -97 155.684C-97 188.288 -65.276 214.738 -26.1615 214.738C-15.6562 214.738 -5.69271 212.811 3.25521 209.395C17.776 228.549 43.3802 241.305 72.5677 241.305C98.4583 241.305 121.552 231.27 136.563 215.628C144.734 222.39 155.964 226.552 168.375 226.552C191.328 226.552 210.234 212.307 213.151 193.848C220.599 196.951 229 198.735 237.891 198.735C268.375 198.735 293.083 178.136 293.083 152.724C293.083 127.312 268.375 106.713 237.891 106.713Z" fill="#3A59CB" fill-opacity="0.5"/>
<path d="M186.823 23.678C179.464 23.678 172.479 24.8802 166.042 27.046C159.953 7.17622 138.307 -7.51562 112.563 -7.51562C101.51 -7.51562 91.2031 -4.79861 82.5729 -0.132812C72.7031 -22.7891 46.6146 -39 15.9896 -39C-21.7604 -39 -52.6146 -14.395 -54.7187 16.6293C-61.7604 14.6589 -69.2969 13.5998 -77.1458 13.5998C-116.281 13.5998 -148 40.0321 -148 72.6233C-148 105.21 -116.281 131.642 -77.1719 131.642C-66.6667 131.642 -56.7135 129.72 -47.7656 126.304C-33.2448 145.449 -7.64583 158.196 21.5313 158.196C47.4219 158.196 70.5104 148.166 85.5208 132.532C93.6875 139.294 104.917 143.452 117.323 143.452C140.271 143.452 159.172 129.216 162.089 110.766C169.536 113.869 177.932 115.648 186.823 115.648C217.302 115.648 242.005 95.0625 242.005 69.6632C242.005 44.2639 217.302 23.678 186.823 23.678Z" fill="#232A42" fill-opacity="0.5"/>
</g>
<defs>
<clipPath id="clip0_1_33">
<rect width="416" height="242" fill="white"/>
</clipPath>
</defs>
</svg>
