<svg width="290" height="224" viewBox="0 0 290 224" fill="none" xmlns="http://www.w3.org/2000/svg">
<g clip-path="url(#clip0_1_37)">
<path d="M334.891 143.713C327.526 143.713 320.542 144.915 314.104 147.081C308.016 127.202 286.365 112.502 260.615 112.502C249.557 112.502 239.25 115.219 230.62 119.889C220.745 97.2196 194.651 81 164.021 81C126.266 81 95.4063 105.618 93.2969 136.66C86.2552 134.689 78.7188 133.63 70.8698 133.63C31.724 133.63 0 160.076 0 192.684C0 225.288 31.724 251.738 70.8385 251.738C81.3438 251.738 91.3073 249.811 100.255 246.395C114.776 265.549 140.38 278.305 169.568 278.305C195.458 278.305 218.552 268.27 233.563 252.628C241.734 259.39 252.964 263.552 265.375 263.552C288.328 263.552 307.234 249.307 310.151 230.848C317.599 233.951 326 235.735 334.891 235.735C365.375 235.735 390.083 215.136 390.083 189.724C390.083 164.312 365.375 143.713 334.891 143.713Z" fill="#3A59CB" fill-opacity="0.5"/>
<path d="M326.071 41.9556C321.146 41.9556 316.472 42.7604 312.164 44.2102C308.089 30.9096 293.603 21.0751 276.374 21.0751C268.978 21.0751 262.08 22.8939 256.304 26.0171C249.699 10.8513 232.24 0 211.745 0C186.482 0 165.834 16.4702 164.426 37.2374C159.713 35.9184 154.67 35.2095 149.417 35.2095C123.227 35.2095 102 52.9028 102 74.7188C102 96.5319 123.227 114.225 149.4 114.225C156.43 114.225 163.091 112.938 169.079 110.652C178.797 123.467 195.928 132 215.454 132C232.781 132 248.232 125.286 258.277 114.821C263.743 119.347 271.257 122.131 279.56 122.131C294.917 122.131 307.566 112.601 309.518 100.251C314.502 102.328 320.121 103.519 326.071 103.519C346.468 103.519 363 89.7393 363 72.7374C363 55.7355 346.468 41.9556 326.071 41.9556Z" fill="#20306D" fill-opacity="0.5"/>
</g>
<defs>
<clipPath id="clip0_1_37">
<rect width="290" height="224" fill="white"/>
</clipPath>
</defs>
</svg>
