<svg width="120" height="13" viewBox="0 0 120 13" fill="none" xmlns="http://www.w3.org/2000/svg">
<path fill-rule="evenodd" clip-rule="evenodd" d="M1.93615 1.46992C-0.784414 3.15298 0.19657 5.81734 4.06857 7.25996C5.83241 7.91722 6.84263 8.83984 6.84263 9.7937C6.84263 10.9476 5.90488 11.567 4.17432 11.5556C2.54235 11.5449 1.8811 11.2045 1.28393 10.067C0.876168 9.29011 0 9.09953 0 9.7877C0 11.3556 2.74389 12.7405 5.10989 12.3672C7.09021 12.0548 8.08674 10.9628 8.08674 9.10489C8.08674 7.72348 7.08337 6.68538 4.9749 5.8855C2.85991 5.0831 1.55514 4.17152 1.55514 3.49659C1.55514 3.2489 1.83507 2.76235 2.1772 2.41526C3.25398 1.32288 6.5316 1.76463 6.5316 3.00215C6.5316 3.32936 6.71262 3.40099 7.38693 3.34104C7.51539 3.32968 7.57417 3.09555 7.51818 2.82072C7.15832 1.05941 3.88164 0.266477 1.93615 1.46992ZM18.872 1.08276C15.4071 1.14839 14.2924 1.26609 14.3866 1.55606C14.4647 1.79555 15.2995 1.9773 16.5872 2.03536L18.6617 2.12844V7.16278V12.1968H19.4393H20.2169V7.14827V2.09973H22.2385C23.9915 2.09973 24.2602 2.02274 24.2602 1.52135C24.2602 1.20298 24.0854 0.954656 23.8714 0.96917C23.6578 0.983369 21.4078 1.0348 18.872 1.08276ZM64.791 1.09033C63.0172 1.65514 62.1765 3.31232 62.89 4.8373C63.1913 5.48193 64.0507 6.10196 65.9971 7.07948C68.969 8.57195 69.5289 9.37404 68.6014 10.8104C68.1933 11.4417 67.8561 11.5657 66.5449 11.5657C64.6871 11.5657 63.8479 11.1748 63.4551 10.1266C63.2965 9.70346 62.9531 9.357 62.6925 9.357C61.5096 9.357 62.7008 11.407 64.2706 12.0725C65.6139 12.6417 66.9374 12.63 68.3392 12.0356C69.7935 11.419 70.2828 10.734 70.2949 9.29579C70.3083 7.74494 69.4225 6.8239 66.8836 5.74793C63.7503 4.42016 63.1764 3.65184 64.3953 2.41526C65.5178 1.2765 68.7497 1.76179 68.7497 3.06873C68.7497 3.22997 69.0346 3.36186 69.3827 3.36186C69.9192 3.36186 69.9649 3.26562 69.6828 2.73079C68.9628 1.36611 66.5088 0.543199 64.791 1.09033ZM80.7816 1.27587C78.2731 2.22342 76.9817 4.36778 77.2324 7.17035C77.415 9.21438 77.9574 10.2083 79.5732 11.4585C80.567 12.2274 80.9819 12.3369 82.9006 12.3369C84.6035 12.3369 85.335 12.1851 86.1788 11.656C89.755 9.4138 89.9295 4.22138 86.506 1.92303C85.0125 0.920262 82.4807 0.634074 80.7816 1.27587ZM104.186 1.21339C104.175 1.44058 104.184 2.86963 104.205 4.38924C104.285 10.0146 103.727 11.2657 101.037 11.4919C99.5633 11.6159 99.2256 11.5313 98.4318 10.8394L97.5199 10.0442L97.4185 5.59868C97.3258 1.51851 97.2701 1.15313 96.7411 1.15313C96.2742 1.15313 96.1234 1.49106 95.9451 2.93905C95.6453 5.37213 96.0179 9.85176 96.5943 10.7441C97.5867 12.2807 100.819 12.9396 102.652 11.9788C104.436 11.0432 104.828 9.8221 104.828 5.1948C104.829 2.8649 104.699 1.10895 104.518 0.995359C104.347 0.888078 104.198 0.98621 104.186 1.21339ZM31.8571 2.96744C31.421 3.96548 30.7051 5.7047 30.2656 6.83273C29.4718 8.87139 28.3546 11.5077 28.0927 11.9602C28.0175 12.0902 28.1568 12.1968 28.4025 12.1968C28.6482 12.1968 29.1502 11.4869 29.5182 10.6191L30.1872 9.04147H32.9361H35.6852L36.3316 10.6191C36.8684 11.9295 37.1126 12.1968 37.7729 12.1968C38.2099 12.1968 38.5676 12.1466 38.5676 12.0854C38.5676 12.0242 37.7869 10.2847 36.8323 8.22013C35.8781 6.1556 34.7543 3.72094 34.3351 2.80968C33.9158 1.89842 33.3653 1.15313 33.1115 1.15313C32.8493 1.15313 32.3081 1.93565 31.8571 2.96744ZM45.7212 6.67497V12.1968H46.4988C47.2589 12.1968 47.2764 12.1441 47.2764 9.8303V7.4638H48.207C49.0128 7.4638 49.3291 7.7563 50.568 9.64603C51.9937 11.8213 53.286 12.7831 54.2689 12.4003C54.8854 12.1605 54.8785 11.5657 54.2596 11.5657C53.6969 11.5657 52.5598 10.3825 51.2936 8.47982L50.395 7.12933L51.1371 6.84314C52.1853 6.43895 52.8764 5.30208 52.8649 4.00145C52.8459 1.85834 51.6986 1.15313 48.23 1.15313H45.7212V6.67497ZM112.916 6.67497V12.1968H116.518C119.262 12.1968 120.091 12.1028 119.992 11.8024C119.905 11.5342 118.95 11.3789 117.012 11.3171L114.16 11.2265V6.18967C114.16 1.36359 114.134 1.15313 113.538 1.15313C112.939 1.15313 112.916 1.36359 112.916 6.67497ZM47.2764 4.10968V6.5172H48.4785C50.1304 6.5172 51.3197 5.53747 51.3197 4.17657C51.3197 2.82041 50.4622 2.06628 48.6887 1.86371L47.2764 1.70216V4.10968ZM80.5271 2.71786C79.9132 3.23123 79.2339 4.08475 79.0174 4.61453C78.1468 6.74659 79.3067 10.3938 81.1221 11.2328C81.5181 11.4159 82.4173 11.5657 83.1202 11.5657C85.545 11.5657 87.4127 9.33775 87.4102 6.44841C87.4071 2.68252 83.2586 0.43371 80.5271 2.71786ZM31.7781 5.23171C31.2357 6.46261 30.7918 7.61021 30.7918 7.78217C30.7918 7.95887 31.7318 8.09487 32.9516 8.09487H35.1114L34.522 6.75385C34.1979 6.01645 33.6701 4.86853 33.3485 4.2037L32.7641 2.99426L31.7781 5.23171Z" fill="white"/>
</svg>
