<svg width="24" height="24" viewBox="0 0 24 24" fill="none" xmlns="http://www.w3.org/2000/svg">
<path fill-rule="evenodd" clip-rule="evenodd" d="M10.674 1.34159C10.8931 1.12287 11.1902 1 11.5 1C11.8098 1 12.1069 1.12287 12.326 1.34159L19.3355 8.34167L21.6721 10.675C21.8849 10.8951 22.0026 11.1898 22 11.4957C21.9973 11.8016 21.8744 12.0942 21.6578 12.3105C21.4412 12.5268 21.1482 12.6495 20.8419 12.6522C20.5356 12.6548 20.2405 12.5372 20.0201 12.3247L19.6778 11.9829V19.6666C19.6778 20.2855 19.4317 20.879 18.9935 21.3166C18.5553 21.7542 17.961 22 17.3413 22H13.8365C13.5267 22 13.2295 21.8771 13.0104 21.6583C12.7913 21.4395 12.6683 21.1427 12.6683 20.8333V17.3333H10.3317V20.8333C10.3317 21.1427 10.2087 21.4395 9.98956 21.6583C9.77047 21.8771 9.47332 22 9.16348 22H5.65869C5.03901 22 4.4447 21.7542 4.00652 21.3166C3.56834 20.879 3.32217 20.2855 3.32217 19.6666V11.9829L2.97987 12.3247C2.75953 12.5372 2.46442 12.6548 2.15811 12.6522C1.8518 12.6495 1.55878 12.5268 1.34218 12.3105C1.12557 12.0942 1.00271 11.8016 1.00004 11.4957C0.997382 11.1898 1.11514 10.8951 1.32794 10.675L3.66447 8.34167L10.674 1.34159Z" fill="white"/>
</svg>
