<svg width="20" height="20" viewBox="0 0 20 20" fill="none" xmlns="http://www.w3.org/2000/svg">
<path fill-rule="evenodd" clip-rule="evenodd" d="M3.12109 1.57397C3.31793 1.37741 3.55429 1.22493 3.81451 1.12664C4.07473 1.02834 4.35287 0.986478 4.6305 1.00382C4.90812 1.02116 5.17889 1.0973 5.42486 1.22721C5.67083 1.35712 5.88639 1.53783 6.05725 1.75735L8.07656 4.35172C8.44667 4.82762 8.57717 5.44752 8.43092 6.03255L7.81557 8.49641C7.78397 8.62404 7.7858 8.75765 7.82088 8.88436C7.85595 9.01108 7.92309 9.12661 8.01581 9.21982L10.7798 11.9841C10.8732 12.077 10.9889 12.1442 11.1158 12.1793C11.2427 12.2144 11.3765 12.2161 11.5043 12.1843L13.9669 11.5689C14.2556 11.4972 14.5568 11.4918 14.8479 11.5531C15.139 11.6145 15.4124 11.7411 15.6476 11.9233L18.2417 13.9417C19.1743 14.6673 19.2598 16.0455 18.4251 16.8792L17.2619 18.0425C16.4294 18.875 15.1852 19.2407 14.0254 18.8323C11.0562 17.7889 8.36066 16.0891 6.13937 13.8595C3.91011 11.6384 2.21049 8.94302 1.16702 5.97404C0.759787 4.81524 1.1254 3.56981 1.95787 2.73727L3.12109 1.57397Z" fill="white"/>
</svg>
